<?xml version="1.0" encoding="UTF-8"?>
<!DOCTYPE svg PUBLIC "-//W3C//DTD SVG 1.1//EN" "http://www.w3.org/Graphics/SVG/1.1/DTD/svg11.dtd">
<!-- Creator: CorelDRAW 2019 (64-Bit) -->
<svg xmlns="http://www.w3.org/2000/svg" xml:space="preserve" width="42.3079mm" height="13.266mm" version="1.1" style="shape-rendering:geometricPrecision; text-rendering:geometricPrecision; image-rendering:optimizeQuality; fill-rule:evenodd; clip-rule:evenodd"
viewBox="0 0 31.2 9.78"
 xmlns:xlink="http://www.w3.org/1999/xlink">
 <defs>
  <style type="text/css">
   <![CDATA[
    .fil3 {fill:black}
    .fil5 {fill:#1A1A1A}
    .fil2 {fill:#4D4D4D}
    .fil1 {fill:#666666}
    .fil8 {fill:#666666}
    .fil0 {fill:gray}
    .fil4 {fill:#999999}
    .fil6 {fill:url(#id0);fill-rule:nonzero}
    .fil7 {fill:url(#id1);fill-rule:nonzero}
   ]]>
  </style>
  <linearGradient id="id0" gradientUnits="userSpaceOnUse" x1="4.88" y1="4.94" x2="4.88" y2="8.42">
   <stop offset="0" style="stop-opacity:1; stop-color:white"/>
   <stop offset="0.231373" style="stop-opacity:1; stop-color:white"/>
   <stop offset="0.560784" style="stop-opacity:1; stop-color:#CCCCCC"/>
   <stop offset="0.729412" style="stop-opacity:1; stop-color:white"/>
   <stop offset="1" style="stop-opacity:1; stop-color:#FEFEFE"/>
  </linearGradient>
  <linearGradient id="id1" gradientUnits="userSpaceOnUse" x1="19.33" y1="4.6" x2="19.33" y2="8.39">
   <stop offset="0" style="stop-opacity:1; stop-color:#00CCFF"/>
   <stop offset="1" style="stop-opacity:1; stop-color:#0072BA"/>
  </linearGradient>
 </defs>
 <g id="Capa_x0020_1">
  <metadata id="CorelCorpID_0Corel-Layer"/>
  <path class="fil0" d="M5.93 9.78l-4.54 0c-0.46,0 -0.84,-0.38 -0.84,-0.84l0 -2.85 5.23 -1.64 0.15 5.33z"/>
  <path class="fil1" d="M15.62 4.73l0 4.21c0,0.46 -0.38,0.84 -0.84,0.84l-0.99 0 0.29 -2.21 0.62 -2.42 0.92 -0.43z"/>
  <polygon class="fil2" points="10.95,9.78 5.93,9.78 5.78,4.45 9.4,5.81 "/>
  <polygon class="fil3" points="13.79,9.78 10.97,9.78 10.95,9.78 9.4,5.81 9.47,5.84 14.08,7.58 "/>
  <polygon class="fil4" points="9.38,5.81 5.78,4.45 9.9,2.66 12.24,3.88 "/>
  <polygon class="fil2" points="14.08,7.58 9.42,5.82 9.38,5.81 12.24,3.88 12.26,3.89 14.7,5.16 "/>
  <path class="fil5" d="M15.62 4.03l0 0.7 -0.92 0.43 -4.8 -2.5 -0.15 -1.92 2.36 1.07 0 -0.26c0,-0.16 0.13,-0.3 0.3,-0.3l1.34 0c0.16,0 0.3,0.13 0.3,0.3l0 1.14 1.99 0.91c0.1,0.05 0.15,0.15 0.13,0.26 -0.02,0.11 -0.12,0.18 -0.23,0.18l-0.32 0z"/>
  <path class="fil2" d="M5.2 1.29l2.79 -1.27c0.06,-0.03 0.13,-0.03 0.19,0l1.57 0.71 0.15 1.92 -4.12 1.8 -0.58 -3.17z"/>
  <path class="fil3" d="M0.56 6.09l0 -2.06 -0.32 0c-0.11,0 -0.2,-0.07 -0.23,-0.18 -0.02,-0.11 0.03,-0.21 0.13,-0.26l3.49 -1.59 1.58 -0.72 0.58 3.17 -5.23 1.64z"/>
  <path class="fil6" d="M2.63 8.78c0.94,0 1.52,-0.47 1.52,-1.21 0,-0.49 -0.23,-0.89 -1.04,-1.22l-0.24 -0.1c-0.49,-0.21 -0.64,-0.36 -0.64,-0.59 0,-0.22 0.17,-0.44 0.71,-0.44 0.36,0 0.71,0.07 0.94,0.21 0.04,0.03 0.06,0 0.06,-0.02l0 -0.61c0,-0.04 -0.01,-0.06 -0.04,-0.08 -0.21,-0.11 -0.56,-0.16 -0.96,-0.16 -0.94,0 -1.45,0.51 -1.45,1.18 0,0.47 0.2,0.86 0.97,1.18l0.3 0.12c0.47,0.2 0.62,0.37 0.62,0.61 0,0.27 -0.22,0.47 -0.73,0.47 -0.36,0 -0.77,-0.11 -1.11,-0.32 -0.02,-0.01 -0.05,0 -0.05,0.02l0 0.65c0,0.05 0.01,0.07 0.04,0.09 0.26,0.14 0.64,0.22 1.09,0.22zm3.23 -0.61c0,-0.04 -0.02,-0.04 -0.04,-0.04 -0.09,0.02 -0.16,0.03 -0.24,0.03 -0.27,0 -0.36,-0.13 -0.36,-0.41l0 -1.48 0.61 0c0.03,0 0.04,-0.01 0.04,-0.04l0 -0.54c0,-0.03 -0.01,-0.04 -0.04,-0.04l-0.61 0c0,-0.31 0.01,-0.67 0.03,-0.88 0,-0.03 -0.01,-0.04 -0.04,-0.03l-0.63 0.09c-0.03,0.01 -0.04,0.03 -0.05,0.06 -0.03,0.16 -0.06,0.55 -0.06,0.77l-0.39 0c-0.04,0 -0.05,0.01 -0.05,0.05l0 0.52c0,0.04 0.01,0.05 0.04,0.06l0.39 0 0 1.64c0,0.62 0.31,0.87 0.82,0.87 0.21,0 0.36,-0.03 0.53,-0.09 0.03,-0.01 0.04,-0.04 0.04,-0.07l0 -0.45zm1.48 -2.59c-0.94,0 -1.52,0.72 -1.52,1.6 0,0.79 0.46,1.6 1.5,1.6 0.88,0 1.5,-0.65 1.5,-1.62 0,-0.86 -0.52,-1.59 -1.49,-1.59zm-0.04 0.63c0.53,0 0.76,0.46 0.76,0.97 0,0.64 -0.33,0.96 -0.72,0.96 -0.47,0 -0.76,-0.4 -0.76,-0.97 0,-0.59 0.3,-0.96 0.72,-0.96zm1.75 2.46c0,0.03 0.01,0.05 0.05,0.05l0.66 0c0.03,0 0.05,-0.02 0.05,-0.05l0 -2.18c0.15,-0.16 0.36,-0.26 0.61,-0.26 0.36,0 0.54,0.24 0.54,0.65l0 1.78c0,0.04 0.02,0.06 0.06,0.06l0.65 0c0.03,0 0.05,-0.01 0.05,-0.06l0 -1.85c0,-1 -0.57,-1.24 -1.04,-1.24 -0.34,0 -0.64,0.12 -0.91,0.34 -0.01,-0.1 -0.02,-0.18 -0.04,-0.24 -0.01,-0.03 -0.03,-0.04 -0.07,-0.04l-0.57 0c-0.04,0 -0.04,0.01 -0.04,0.04 0.01,0.12 0.03,0.46 0.03,0.67l0 2.31zm4.92 -1.32c0.31,0 0.56,-0.01 0.64,-0.03 0.03,-0.01 0.04,-0.02 0.05,-0.04 0.02,-0.07 0.03,-0.21 0.03,-0.39 0,-0.59 -0.36,-1.32 -1.28,-1.32 -0.94,0 -1.47,0.77 -1.47,1.64 0,0.77 0.41,1.57 1.54,1.57 0.42,0 0.7,-0.07 0.94,-0.18 0.03,-0.01 0.04,-0.03 0.04,-0.07l0 -0.52c0,-0.03 -0.02,-0.04 -0.04,-0.03 -0.24,0.1 -0.49,0.15 -0.77,0.15 -0.64,0 -0.92,-0.35 -0.94,-0.79l1.27 0zm-1.27 -0.54c0.05,-0.31 0.24,-0.64 0.67,-0.64 0.47,0 0.6,0.4 0.6,0.58 0,0.01 0,0.03 0,0.05 -0.03,0.01 -0.11,0.01 -0.34,0.01l-0.93 0z"/>
  <path class="fil7" d="M19.75 8.71c0.04,0 0.05,-0.01 0.05,-0.05l0 -4.01c0,-0.03 -0.01,-0.04 -0.04,-0.04l-0.67 0c-0.03,0 -0.04,0.02 -0.04,0.04l0 1.59 -1.74 0 0 -1.58c0,-0.04 -0.01,-0.05 -0.05,-0.05l-0.65 0c-0.04,0 -0.05,0.01 -0.05,0.06l0 3.99c0,0.04 0.01,0.06 0.06,0.06l0.64 0c0.04,0 0.05,-0.02 0.05,-0.06l0 -1.74 1.74 0 0 1.74c0,0.04 0.01,0.05 0.05,0.05l0.66 0zm1.83 -3.14c-0.94,0 -1.52,0.72 -1.52,1.6 0,0.79 0.46,1.6 1.5,1.6 0.88,0 1.5,-0.65 1.5,-1.62 0,-0.86 -0.52,-1.59 -1.49,-1.59zm-0.04 0.63c0.53,0 0.76,0.46 0.76,0.97 0,0.64 -0.33,0.96 -0.72,0.96 -0.47,0 -0.76,-0.4 -0.76,-0.97 0,-0.59 0.3,-0.96 0.72,-0.96zm4.36 -0.52c0,-0.03 -0.01,-0.04 -0.04,-0.04l-0.66 0c-0.04,0 -0.05,0.01 -0.05,0.04l0 2.22c-0.16,0.14 -0.33,0.22 -0.57,0.22 -0.37,0 -0.54,-0.24 -0.54,-0.62l0 -1.82c0,-0.03 -0.01,-0.04 -0.04,-0.04l-0.66 0c-0.04,0 -0.05,0.01 -0.05,0.04l0 1.9c0,0.87 0.46,1.19 1.05,1.19 0.28,0 0.6,-0.07 0.87,-0.32 0.01,0.06 0.02,0.16 0.04,0.22 0.01,0.03 0.02,0.04 0.06,0.04l0.57 0c0.04,0 0.06,-0.01 0.05,-0.04 -0.01,-0.13 -0.04,-0.32 -0.04,-0.64l0 -2.35zm2.23 0.68c0.04,0.01 0.06,-0.01 0.06,-0.04l0 -0.55c0,-0.03 -0.01,-0.06 -0.04,-0.07 -0.15,-0.07 -0.42,-0.12 -0.79,-0.12 -0.78,0 -1.17,0.44 -1.17,0.92 0,0.45 0.24,0.73 0.92,0.98 0.39,0.16 0.51,0.26 0.51,0.41 0,0.16 -0.16,0.27 -0.48,0.27 -0.28,0 -0.62,-0.07 -0.89,-0.25 -0.03,-0.01 -0.05,0 -0.05,0.03l0 0.59c0,0.04 0.01,0.05 0.04,0.07 0.19,0.11 0.51,0.17 0.88,0.17 0.77,0 1.23,-0.37 1.23,-0.96 0,-0.44 -0.24,-0.72 -0.96,-0.99 -0.4,-0.16 -0.49,-0.25 -0.49,-0.39 0,-0.13 0.11,-0.27 0.44,-0.27 0.27,0 0.59,0.07 0.78,0.18zm2.3 0.99c0.31,0 0.56,-0.01 0.64,-0.03 0.03,-0.01 0.04,-0.02 0.05,-0.04 0.02,-0.07 0.03,-0.21 0.03,-0.39 0,-0.59 -0.36,-1.32 -1.28,-1.32 -0.94,0 -1.47,0.77 -1.47,1.64 0,0.77 0.41,1.57 1.54,1.57 0.42,0 0.7,-0.07 0.94,-0.18 0.03,-0.01 0.04,-0.03 0.04,-0.07l0 -0.52c0,-0.03 -0.02,-0.04 -0.04,-0.03 -0.24,0.1 -0.49,0.15 -0.77,0.15 -0.64,0 -0.92,-0.35 -0.94,-0.79l1.27 0zm-1.27 -0.54c0.05,-0.31 0.24,-0.64 0.67,-0.64 0.47,0 0.6,0.4 0.6,0.58 0,0.01 0,0.03 0,0.05 -0.03,0.01 -0.11,0.01 -0.34,0.01l-0.93 0z"/>
  <rect class="fil8" x="14.01" y="9.35" width="17.19" height="0.43" rx="0.38" ry="0.22"/>
 </g>
</svg>
